<?xml version="1.0" encoding="UTF-8"?>
<svg width="300" height="300" version="1.1" xmlns="http://www.w3.org/2000/svg">
	<path d="m274.68 139.53c-5.76-2.85-12.66-0.39-15.54 5.4-0.18 0.3-17.04 34.5-43.02 36.9-21.93 2.19-42.9-19.95-56.82-38.82-25.38-34.35-51.66-50.4-77.73-48.09-39.15 3.75-60.84 48.12-61.8 50.04-2.76 5.82-0.27 12.72 5.4 15.51 5.85 2.79 12.84 0.45 15.66-5.37 0.12-0.39 17.07-34.53 43.05-36.93 21.72-2.1 42.9 19.98 56.73 38.76 23.73 32.1 48.15 48.33 72.48 48.33 1.86 0 3.54-0.06 5.34-0.27 39.09-3.63 60.81-48.09 61.68-49.95 2.88-5.82 0.39-12.75-5.43-15.51z"/>
</svg>
