<?xml version="1.0" encoding="UTF-8" standalone="no"?>
<!-- Created with Inkscape (http://www.inkscape.org/) -->

<svg
   width="68.711235mm"
   height="52.931217mm"
   viewBox="0 0 68.711235 52.931217"
   version="1.1"
   id="svg785"
   inkscape:version="1.2.2 (b0a8486541, 2022-12-01)"
   sodipodi:docname="UFP1.svg"
   xmlns:inkscape="http://www.inkscape.org/namespaces/inkscape"
   xmlns:sodipodi="http://sodipodi.sourceforge.net/DTD/sodipodi-0.dtd"
   xmlns="http://www.w3.org/2000/svg"
   xmlns:svg="http://www.w3.org/2000/svg">
  <sodipodi:namedview
     id="namedview787"
     pagecolor="#00000f"
     bordercolor="#666666"
     borderopacity="1.0"
     inkscape:showpageshadow="2"
     inkscape:pageopacity="0"
     inkscape:pagecheckerboard="0"
     inkscape:deskcolor="#d1d1d1"
     inkscape:document-units="mm"
     showgrid="false"
     inkscape:zoom="2.0584323"
     inkscape:cx="32.063235"
     inkscape:cy="108.09197"
     inkscape:window-width="1920"
     inkscape:window-height="1056"
     inkscape:window-x="0"
     inkscape:window-y="0"
     inkscape:window-maximized="1"
     inkscape:current-layer="layer1" />
  <defs
     id="defs782" />
  <g
     inkscape:label="Ebene 1"
     inkscape:groupmode="layer"
     id="layer1"
     transform="translate(-59.415911,-73.784678)">
    <path
       style="fill:#ffffff;stroke-width:0.264583"
       d="m 73.973021,79.891473 c 2.088092,-1.712648 4.469606,-5.373687 4.469606,-5.373687 0,0 -0.763058,0.04207 -1.780381,0.601397 -1.266296,0.696384 -2.84189,1.94019 -2.84189,1.94019 l 0.153988,-1.540404 c 0,0 -1.25439,0.993775 -2.055283,2.309548 -0.817034,1.341702 -1.180042,3.005666 -1.180042,3.005666 0,0 1.504156,0.475457 3.234002,-0.94271 z m -3.960019,4.989248 c 1.185069,-1.072356 2.035704,-2.582863 2.035704,-2.582863 0,0 -0.723635,0.360363 -1.397793,0.469107 -0.490273,0.07885 -0.990071,-0.08387 -0.990071,-0.08387 0,0 -0.260086,-0.542132 -0.207698,-1.466586 0.06191,-1.101195 0.438679,-2.615935 0.438679,-2.615935 0,0 -1.403614,1.51421 -2.010569,3.335073 -0.170656,0.511704 -0.29792,1.042987 -0.394493,1.557866 -0.37174,1.732492 -0.291307,3.19458 -0.291307,3.19458 0,0 1.577182,-0.685271 2.817548,-1.807369 z m -2.218531,5.644091 c 0.96176,-1.05992 1.557867,-2.680493 1.557867,-2.680493 0,0 -0.814388,0.454554 -1.651794,0.647964 -0.637117,0.146844 -1.352021,0.04551 -1.352021,0.04551 0,0 -0.224102,-0.659342 -0.313531,-1.602846 -0.159015,-1.681427 -0.07197,-4.328848 -0.07197,-4.328848 0,0 -1.449123,2.633662 -1.508918,5.013589 -0.0553,2.196042 1.124214,4.383882 1.124214,4.383882 0,0 1.291696,-0.459846 2.21615,-1.478757 z m -2.755635,6.640248 c 0,0 1.409171,-1.062831 2.169583,-2.303198 0.700617,-1.143264 0.757502,-2.47306 0.757502,-2.47306 0,0 -0.679185,0.371475 -1.402292,0.652727 -0.661193,0.256911 -1.370806,0.425715 -1.370806,0.425715 0,0 -0.786606,-0.858838 -1.269735,-1.986757 -0.73369,-1.712118 -1.272646,-3.944672 -1.272646,-3.944672 0,0 -0.778669,2.989262 -0.176742,5.417872 0.591873,2.385748 2.565136,4.211373 2.565136,4.211373 z m 0.385233,5.85417 c 0,0 0.971815,-1.02447 1.49516,-2.31484 0.554038,-1.364984 0.661459,-3.000373 0.661459,-3.000373 l -2.233348,2.002631 c 0,0 -1.20015,-0.795073 -2.231231,-2.159 -1.411552,-1.868223 -2.775744,-4.465638 -2.775744,-4.465638 0,0 -0.171979,4.065323 1.108869,6.56934 1.260739,2.46433 3.974835,3.36788 3.974835,3.36788 z m 1.46341,5.39221 c 0,0 0.85778,-0.99325 1.12739,-2.27224 0.338667,-1.60973 0.105304,-3.5822 0.105304,-3.5822 0,0 -0.390789,0.8173 -0.888735,1.56449 -0.419365,0.62944 -0.959644,1.20861 -0.959644,1.20861 0,0 -1.400704,-0.56409 -2.7686,-1.85393 -1.924315,-1.81531 -4.087283,-4.77097 -4.087283,-4.77097 0,0 0.199496,4.40796 2.032,6.75614 1.864254,2.38918 5.439568,2.9501 5.439568,2.9501 z m 3.004344,5.16096 c 0,0 0.521758,-1.38959 0.503502,-2.92708 -0.02011,-1.69096 -0.580496,-3.54383 -0.580496,-3.54383 l -1.771914,3.38931 c 0,0 -1.664229,0.0537 -3.326077,-0.82047 -2.035704,-1.07024 -4.145492,-3.10806 -4.145492,-3.10806 0,0 1.380861,3.85259 3.773223,5.65176 2.264304,1.70339 5.547254,1.35837 5.547254,1.35837 z m 3.620294,4.46802 c 0,0 0.245533,-1.5666 0.01349,-2.9935 -0.266436,-1.63909 -1.014677,-3.16891 -1.014677,-3.16891 0,0 -0.141817,1.11919 -0.477573,2.12593 -0.274373,0.82338 -0.755121,1.57136 -0.755121,1.57136 0,0 -0.94959,0.13996 -2.159794,0.0333 -1.736196,-0.15373 -3.925623,-0.5723 -3.925623,-0.5723 0,0 1.182688,1.63618 3.312583,2.40533 2.027238,0.73184 5.006711,0.59875 5.006711,0.59875 z m 1.694656,-2.69637 -0.307975,3.92854 c 0,0 -0.892704,0.35136 -2.082535,0.40031 -1.568715,0.0646 -3.541184,-0.16907 -3.541184,-0.16907 0,0 1.725348,1.47188 3.78169,1.94786 2.102908,0.48684 4.537869,-0.022 4.537869,-0.022 0,0 0.259291,-1.38932 -0.289719,-2.71753 -0.637646,-1.54385 -2.098146,-3.36815 -2.098146,-3.36815 z m 14.444927,8.09334 c -1.316302,-0.72654 -3.275542,-1.16073 -3.275542,-1.16073 0,0 -1.973527,-0.32199 -3.845454,-0.86783 -1.824566,-0.53261 -3.549385,-1.28878 -3.549385,-1.28878 0,0 0.38735,0.96414 0.179123,1.63036 -0.173831,0.55615 -0.949325,0.83423 -0.949325,0.83423 l 1.694391,0.53922 c 0,0 4.278577,0.12462 6.779948,0.53155 2.219325,0.36062 2.695311,1.00885 2.695311,1.00885 0,0 -0.270669,0.28496 -1.223963,0.43842 -1.361016,0.2196 -3.398044,0.17806 -3.398044,0.17806 l 1.463146,1.38668 c 0,0 1.604169,0.19553 2.989527,-0.20558 1.26709,-0.36724 2.325952,-1.33535 2.325952,-1.33535 0,0 -0.6223,-0.99139 -1.885685,-1.6891 z m 23.91807,-43.545917 c 1.72958,1.418167 3.234,0.94271 3.234,0.94271 0,0 -0.36301,-1.663964 -1.18004,-3.005931 -0.80063,-1.315508 -2.05581,-2.309548 -2.05581,-2.309548 l 0.15398,1.540404 c 0,0 -1.57559,-1.24407 -2.84189,-1.940189 -1.01705,-0.559594 -1.78011,-0.601398 -1.78011,-0.601398 0,0 2.38151,3.661569 4.46987,5.373952 z m 3.96002,4.989248 c 1.24036,1.121833 2.81702,1.807898 2.81702,1.807898 0,0 0.081,-1.4605 -0.29025,-3.191669 -0.0963,-0.515937 -0.2249,-1.048808 -0.39502,-1.561042 -0.60749,-1.821127 -2.0111,-3.335072 -2.0111,-3.335072 0,0 0.37623,1.515004 0.43868,2.616199 0.0521,0.924719 -0.2077,1.466586 -0.2077,1.466586 0,0 -0.50033,0.162719 -0.99007,0.08387 -0.6739,-0.109009 -1.39753,-0.469106 -1.39753,-0.469106 0,0 0.85037,1.510241 2.03597,2.582333 z m 0.66013,2.963598 c 0,0 0.59611,1.620573 1.55813,2.680493 0.92472,1.01944 2.21668,1.479021 2.21668,1.479021 0,0 1.17925,-2.188104 1.12422,-4.383881 -0.0606,-2.379927 -1.50919,-5.013589 -1.50919,-5.013589 0,0 0.0868,2.64742 -0.072,4.328847 -0.0894,0.94324 -0.31327,1.602582 -0.31327,1.602582 0,0 -0.71517,0.1016 -1.35255,-0.04551 -0.83741,-0.19341 -1.65206,-0.647964 -1.65206,-0.647964 z m 2.78898,5.19721 c -0.72232,-0.281252 -1.40256,-0.652727 -1.40256,-0.652727 0,0 0.0571,1.329267 0.75777,2.47306 0.76041,1.240367 2.16958,2.303198 2.16958,2.303198 0,0 1.973,-1.825625 2.56408,-4.211373 0.60192,-2.42861 -0.17675,-5.417872 -0.17675,-5.417872 0,0 -0.53842,2.232554 -1.27264,3.944408 -0.4834,1.128183 -1.26947,1.987021 -1.26947,1.987021 0,0 -0.70882,-0.168804 -1.37001,-0.425715 z m 1.21681,6.665648 -2.23387,-2.002367 c 0,0 0.10742,1.63539 0.66146,3.00011 0.52361,1.29064 1.49542,2.3151 1.49542,2.3151 0,0 2.7141,-0.90381 3.97431,-3.367876 1.28137,-2.504017 1.10939,-6.56934 1.10939,-6.56934 0,0 -1.36419,2.597679 -2.776,4.465638 -1.03082,1.363397 -2.23071,2.158735 -2.23071,2.158735 z m 1.84389,3.769253 c -1.36817,1.29011 -2.7686,1.8542 -2.7686,1.8542 0,0 -0.54028,-0.57944 -0.95991,-1.20862 -0.49821,-0.74691 -0.88874,-1.56448 -0.88874,-1.56448 0,0 -0.23363,1.97221 0.10557,3.5822 0.26908,1.27899 1.12686,2.27224 1.12686,2.27224 0,0 3.57558,-0.56118 5.44036,-2.95011 1.83304,-2.34791 2.032,-6.755866 2.032,-6.755866 0,0 -2.1627,2.955126 -4.08754,4.770436 z m -4.54025,7.01463 -1.77165,-3.38931 c 0,0 -0.55986,1.85261 -0.57997,3.54383 -0.0183,1.53723 0.50297,2.92709 0.50297,2.92709 0,0 3.28295,0.34501 5.54778,-1.35811 2.39237,-1.79943 3.77349,-5.65176 3.77349,-5.65176 0,0 -2.11058,2.03782 -4.14549,3.10806 -1.66317,0.87391 -3.32713,0.8202 -3.32713,0.8202 z m -3.23506,5.08397 c 0,0 -0.48022,-0.74797 -0.75513,-1.57136 -0.33575,-1.00674 -0.47757,-2.12592 -0.47757,-2.12592 0,0 -0.7485,1.52955 -1.01468,3.16891 -0.23204,1.42743 0.0132,2.9935 0.0132,2.9935 0,0 2.97974,0.13308 5.00671,-0.59902 2.13016,-0.76914 3.31285,-2.40533 3.31285,-2.40533 0,0 -2.18995,0.41831 -3.92615,0.57203 -1.20994,0.10742 -2.15926,-0.0328 -2.15926,-0.0328 z m -1.53803,4.09787 c -1.19009,-0.0492 -2.08253,-0.40031 -2.08253,-0.40031 l -0.30824,-3.92854 c 0,0 -1.4605,1.82404 -2.09894,3.36788 -0.54901,1.32848 -0.28946,2.71754 -0.28946,2.71754 0,0 2.4347,0.50932 4.53734,0.022 2.05634,-0.47625 3.78169,-1.94786 3.78169,-1.94786 0,0 -1.97114,0.23389 -3.53986,0.16933 z m -6.34418,2.07751 c -0.20822,-0.66702 0.17913,-1.6301 0.17913,-1.6301 0,0 -1.72482,0.75618 -3.54939,1.28852 -1.87219,0.54584 -3.84545,0.86783 -3.84545,0.86783 0,0 -1.959243,0.43392 -3.275016,1.16073 -1.263385,0.69771 -1.88595,1.68989 -1.88595,1.68989 0,0 1.059127,0.96785 2.325688,1.33509 1.385358,0.4019 2.989528,0.20558 2.989528,0.20558 l 1.46341,-1.38668 c 0,0 -2.03703,0.0418 -3.398045,-0.17753 -0.953293,-0.15399 -1.223698,-0.43868 -1.223698,-0.43868 0,0 0.475721,-0.64823 2.695043,-1.00886 2.50137,-0.40693 6.77969,-0.53155 6.77969,-0.53155 l 1.69465,-0.53922 c -2.6e-4,-5.3e-4 -0.77576,-0.27887 -0.94959,-0.83502 z"
       id="path12" />
    <path
       style="fill:#ffffff;stroke-width:0.264583"
       d="m 92.9156,97.827842 c 7.94e-4,0 0.0011,0 0.0011,0 h -0.0019 c -0.09366,-0.0016 -4.341019,-0.06932 -5.042958,-0.770732 -0.70141,-0.70141 -0.769144,-4.949031 -0.770467,-5.042693 v -0.0019 c 0,0 0,2.64e-4 0,0.0011 0,-7.94e-4 0,-0.0011 0,-0.0011 v 0.0019 c -0.0016,0.09366 -0.06906,4.341018 -0.770731,5.042693 -0.697706,0.697971 -4.904581,0.768615 -5.040577,0.770732 h -0.0034 c 0,0 7.94e-4,0 0.0019,0 -0.0011,0 -0.0019,0 -0.0019,0 h 0.0034 c 0.13626,0.0019 4.342871,0.07276 5.040577,0.770466 0.701675,0.701411 0.769144,4.949032 0.770731,5.042692 v 0.002 c 0,0 0,-2.6e-4 0,-0.001 0,5.2e-4 0,0.001 0,0.001 v -0.002 c 0.0016,-0.0937 0.06906,-4.340752 0.770731,-5.042692 0.701411,-0.70141 4.949032,-0.769144 5.042694,-0.770466 h 0.0019 c -2.64e-4,0 -5.29e-4,0 -0.0011,0 z"
       id="path14" />
    <path
       style="fill:#ffffff;stroke-width:0.264583"
       d="m 102.6655,90.989421 c 5.2e-4,0 7.9e-4,0 7.9e-4,0 h -0.002 c -0.072,-0.0011 -3.348565,-0.05292 -3.889638,-0.594254 -0.541073,-0.541338 -0.593195,-3.817673 -0.594518,-3.889375 v -0.0011 c 0,0 0,0 0,5.3e-4 0,-2.65e-4 0,-5.3e-4 0,-5.3e-4 v 0.0011 c -0.0011,0.0717 -0.05318,3.348037 -0.59399,3.889375 -0.538162,0.538162 -3.783277,0.592666 -3.888317,0.594254 h -0.0029 c 0,0 7.94e-4,0 0.0019,0 -0.0011,0 -0.0019,0 -0.0019,0 h 0.0029 c 0.10504,0.0019 3.350155,0.05609 3.888317,0.594519 0.541073,0.541072 0.593196,3.817937 0.59399,3.889639 v 0.0016 c 0,0 0,-2.65e-4 0,-7.94e-4 0,5.29e-4 0,7.94e-4 0,7.94e-4 v -0.0016 c 0.0013,-0.0717 0.05344,-3.348567 0.594783,-3.889639 0.541073,-0.541073 3.817413,-0.593461 3.889373,-0.594519 h 0.002 c -2.7e-4,0 -5.3e-4,0 -7.9e-4,0 z"
       id="path16" />
    <path
       style="fill:#ffffff;stroke-width:0.264583"
       d="m 104.7184,102.70226 c 2.6e-4,0 7.9e-4,0 7.9e-4,0 h -0.002 c -0.0669,-10e-4 -3.12552,-0.05 -3.63061,-0.55483 -0.50535,-0.50509 -0.55404,-3.563674 -0.55509,-3.631143 v -0.0013 c 0,0 0,2.65e-4 0,7.94e-4 0,-2.64e-4 0,-7.94e-4 0,-7.94e-4 v 0.0013 c -0.001,0.06721 -0.0497,3.125523 -0.5551,3.630873 -0.502179,0.50218 -3.531394,0.55351 -3.62929,0.5551 h -0.0026 c 0,0 5.3e-4,0 0.0013,0 -7.93e-4,0 -0.0013,0 -0.0013,0 h 0.0026 c 0.0979,0.002 3.126846,0.0526 3.62929,0.55483 0.50535,0.50536 0.55404,3.56367 0.5551,3.63088 v 0.002 c 0,0 0,0 0,-5.3e-4 0,2.6e-4 0,5.3e-4 0,5.3e-4 v -0.002 c 10e-4,-0.0669 0.0497,-3.12552 0.55509,-3.63088 0.50509,-0.50509 3.56367,-0.55377 3.63061,-0.55483 h 0.002 c 0,0 -5.3e-4,0 -7.9e-4,0 z"
       id="path18" />
    <circle
       style="fill:#ffffff;stroke-width:0.264583"
       cx="101.18224"
       cy="97.080925"
       r="0.97260833"
       id="circle20" />
    <circle
       style="fill:#ffffff;stroke-width:0.264583"
       cx="95.393158"
       cy="100.81499"
       r="0.97260833"
       id="circle22" />
    <circle
       style="fill:#ffffff;stroke-width:0.264583"
       cx="88.991562"
       cy="107.80951"
       r="0.97260833"
       id="circle24" />
    <circle
       style="fill:#ffffff;stroke-width:0.264583"
       cx="93.77285"
       cy="94.75576"
       r="0.90355206"
       id="circle26" />
    <circle
       style="fill:#ffffff;stroke-width:0.264583"
       cx="93.82682"
       cy="105.87408"
       r="0.95964378"
       id="circle28" />
    <circle
       style="fill:#ffffff;stroke-width:0.264583"
       cx="81.048775"
       cy="106.54481"
       r="0.97260833"
       id="circle30" />
    <circle
       style="fill:#ffffff;stroke-width:0.264583"
       cx="111.81135"
       cy="89.569931"
       r="0.97260833"
       id="circle32" />
    <circle
       style="fill:#ffffff;stroke-width:0.264583"
       cx="106.49745"
       cy="87.524437"
       r="0.98133957"
       id="circle34" />
    <circle
       style="fill:#ffffff;stroke-width:0.264583"
       cx="93.654579"
       cy="97.4561"
       r="0.71358126"
       id="circle36" />
    <circle
       style="fill:#ffffff;stroke-width:0.264583"
       cx="83.907074"
       cy="106.12332"
       r="0.71358126"
       id="circle38" />
    <circle
       style="fill:#ffffff;stroke-width:0.264583"
       cx="75.661331"
       cy="102.67262"
       r="0.71358126"
       id="circle40" />
    <circle
       style="fill:#ffffff;stroke-width:0.264583"
       cx="96.775871"
       cy="79.081055"
       r="0.71358126"
       id="circle42" />
    <circle
       style="fill:#ffffff;stroke-width:0.264583"
       cx="100.57899"
       cy="78.499763"
       r="0.71358126"
       id="circle44" />
    <circle
       style="fill:#ffffff;stroke-width:0.264583"
       cx="76.918625"
       cy="94.774284"
       r="0.78819376"
       id="circle46" />
    <circle
       style="fill:#ffffff;stroke-width:0.264583"
       cx="75.336151"
       cy="100.37208"
       r="0.78792912"
       id="circle48" />
    <circle
       style="fill:#ffffff;stroke-width:0.264583"
       cx="89.593231"
       cy="86.115005"
       r="0.78819376"
       id="circle50" />
    <circle
       style="fill:#ffffff;stroke-width:0.264583"
       cx="86.185127"
       cy="86.347305"
       r="0.53392911"
       id="circle52" />
    <circle
       style="fill:#ffffff;stroke-width:0.264583"
       cx="92.503647"
       cy="83.263062"
       r="0.53392911"
       id="circle54" />
    <circle
       style="fill:#ffffff;stroke-width:0.264583"
       cx="93.873657"
       cy="92.167084"
       r="0.53392911"
       id="circle56" />
    <circle
       style="fill:#ffffff;stroke-width:0.264583"
       cx="88.609505"
       cy="95.124855"
       r="0.53392911"
       id="circle58" />
    <circle
       style="fill:#ffffff;stroke-width:0.264583"
       cx="90.888359"
       cy="99.603462"
       r="0.53419375"
       id="circle60" />
    <circle
       style="fill:#ffffff;stroke-width:0.264583"
       cx="91.797203"
       cy="104.08179"
       r="0.53392911"
       id="circle62" />
    <circle
       style="fill:#ffffff;stroke-width:0.264583"
       cx="91.87632"
       cy="101.18408"
       r="0.53419375"
       id="circle64" />
    <circle
       style="fill:#ffffff;stroke-width:0.264583"
       cx="93.825508"
       cy="101.81617"
       r="0.53392911"
       id="circle66" />
    <circle
       style="fill:#ffffff;stroke-width:0.264583"
       cx="101.47884"
       cy="99.708504"
       r="0.53392911"
       id="circle68" />
    <path
       style="fill:#ffffff;stroke-width:0.264583"
       d="m 98.897564,100.96659 c 0,0.29475 -0.238918,0.5342 -0.534193,0.5342 -0.295275,0 -0.534194,-0.23892 -0.534194,-0.5342 0,-0.29474 0.238654,-0.53419 0.534194,-0.53419 0.29501,0 0.534193,0.23918 0.534193,0.53419 z"
       id="path70" />
    <circle
       style="fill:#ffffff;stroke-width:0.264583"
       cx="104.99568"
       cy="94.018372"
       r="0.53392911"
       id="circle72" />
    <circle
       style="fill:#ffffff;stroke-width:0.264583"
       cx="94.036377"
       cy="99.313477"
       r="0.53419375"
       id="circle74" />
    <circle
       style="fill:#ffffff;stroke-width:0.264583"
       cx="96.618179"
       cy="103.66032"
       r="0.53392911"
       id="circle76" />
    <circle
       style="fill:#ffffff;stroke-width:0.264583"
       cx="106.41835"
       cy="94.334282"
       r="0.53419375"
       id="circle78" />
    <circle
       style="fill:#ffffff;stroke-width:0.264583"
       cx="110.63316"
       cy="91.528641"
       r="0.53392911"
       id="circle80" />
    <path
       style="fill:#ffffff;stroke-width:0.264583"
       d="m 111.16735,98.763937 c 0,0.336286 -0.27278,0.609336 -0.60933,0.609336 -0.33682,0 -0.60987,-0.272786 -0.60987,-0.609336 0,-0.336814 0.27279,-0.610129 0.60987,-0.610129 0.33602,5.29e-4 0.60933,0.273579 0.60933,0.610129 z"
       id="path82" />
    <circle
       style="fill:#ffffff;stroke-width:0.264583"
       cx="104.15245"
       cy="89.855949"
       r="0.53392911"
       id="circle84" />
    <circle
       style="fill:#ffffff;stroke-width:0.264583"
       cx="107.52457"
       cy="88.881218"
       r="0.53392911"
       id="circle86" />
    <circle
       style="fill:#ffffff;stroke-width:0.264583"
       cx="107.95954"
       cy="90.540955"
       r="0.53392911"
       id="circle88" />
    <circle
       style="fill:#ffffff;stroke-width:0.264583"
       cx="105.04833"
       cy="85.008514"
       r="0.53419375"
       id="circle90" />
    <circle
       style="fill:#ffffff;stroke-width:0.264583"
       cx="108.63105"
       cy="86.273224"
       r="0.53392911"
       id="circle92" />
    <circle
       style="fill:#ffffff;stroke-width:0.264583"
       cx="106.49745"
       cy="82.216103"
       r="0.53392911"
       id="circle94" />
    <circle
       style="fill:#ffffff;stroke-width:0.264583"
       cx="88.398895"
       cy="102.0797"
       r="0.53419375"
       id="circle96" />
    <circle
       style="fill:#ffffff;stroke-width:0.264583"
       cx="87.950958"
       cy="105.9786"
       r="0.53419375"
       id="circle98" />
    <circle
       style="fill:#ffffff;stroke-width:0.264583"
       cx="85.448265"
       cy="106.74245"
       r="0.53419375"
       id="circle100" />
    <circle
       style="fill:#ffffff;stroke-width:0.264583"
       cx="84.289131"
       cy="103.58121"
       r="0.53392911"
       id="circle102" />
    <circle
       style="fill:#ffffff;stroke-width:0.264583"
       cx="86.212112"
       cy="103.58147"
       r="0.53392911"
       id="circle104" />
    <circle
       style="fill:#ffffff;stroke-width:0.264583"
       cx="81.549362"
       cy="101.71087"
       r="0.53392911"
       id="circle106" />
    <circle
       style="fill:#ffffff;stroke-width:0.264583"
       cx="83.30117"
       cy="98.799919"
       r="0.53392911"
       id="circle108" />
    <circle
       style="fill:#ffffff;stroke-width:0.264583"
       cx="79.863174"
       cy="97.100502"
       r="0.53392911"
       id="circle110" />
    <circle
       style="fill:#ffffff;stroke-width:0.264583"
       cx="75.279533"
       cy="91.370682"
       r="0.53392911"
       id="circle112" />
    <circle
       style="fill:#ffffff;stroke-width:0.264583"
       cx="76.630493"
       cy="107.16022"
       r="0.53392911"
       id="circle114" />
    <circle
       style="fill:#ffffff;stroke-width:0.264583"
       cx="80.074051"
       cy="110.25955"
       r="0.53392911"
       id="circle116" />
    <circle
       style="fill:#ffffff;stroke-width:0.264583"
       cx="83.182907"
       cy="107.7304"
       r="0.53392911"
       id="circle118" />
    <circle
       style="fill:#ffffff;stroke-width:0.264583"
       cx="96.775871"
       cy="116.76645"
       r="0.53392911"
       id="circle120" />
    <circle
       style="fill:#ffffff;stroke-width:0.264583"
       cx="81.760239"
       cy="110.5625"
       r="0.53392911"
       id="circle122" />
    <circle
       style="fill:#ffffff;stroke-width:0.264583"
       cx="82.339676"
       cy="113.49991"
       r="0.53392911"
       id="circle124" />
    <circle
       style="fill:#ffffff;stroke-width:0.264583"
       cx="85.342957"
       cy="111.19459"
       r="0.53392911"
       id="circle126" />
    <circle
       style="fill:#ffffff;stroke-width:0.264583"
       cx="95.880524"
       cy="112.22223"
       r="0.53392911"
       id="circle128" />
    <circle
       style="fill:#ffffff;stroke-width:0.264583"
       cx="96.697289"
       cy="108.74482"
       r="0.53392911"
       id="circle130" />
    <circle
       style="fill:#ffffff;stroke-width:0.264583"
       cx="108.51252"
       cy="109.21895"
       r="0.53392911"
       id="circle132" />
    <circle
       style="fill:#ffffff;stroke-width:0.264583"
       cx="105.82568"
       cy="100.8941"
       r="0.53392911"
       id="circle134" />
    <circle
       style="fill:#ffffff;stroke-width:0.264583"
       cx="103.65292"
       cy="98.087929"
       r="0.58367085"
       id="circle136" />
    <circle
       style="fill:#ffffff;stroke-width:0.264583"
       cx="102.54908"
       cy="96.11599"
       r="0.57017708"
       id="circle138" />
    <circle
       style="fill:#ffffff;stroke-width:0.264583"
       cx="97.16111"
       cy="96.69516"
       r="0.60298544"
       id="circle140" />
    <circle
       style="fill:#ffffff;stroke-width:0.264583"
       cx="101.82385"
       cy="89.740326"
       r="0.60298544"
       id="circle142" />
    <circle
       style="fill:#ffffff;stroke-width:0.264583"
       cx="100.56973"
       cy="92.67482"
       r="0.62256455"
       id="circle144" />
    <circle
       style="fill:#ffffff;stroke-width:0.264583"
       cx="94.721382"
       cy="111.32635"
       r="0.53392911"
       id="circle146" />
    <circle
       style="fill:#ffffff;stroke-width:0.264583"
       cx="97.882622"
       cy="107.95424"
       r="0.53392911"
       id="circle148" />
    <circle
       style="fill:#ffffff;stroke-width:0.264583"
       cx="106.26012"
       cy="91.094193"
       r="0.53392911"
       id="circle150" />
    <circle
       style="fill:#ffffff;stroke-width:0.264583"
       cx="102.47394"
       cy="92.234024"
       r="0.57943749"
       id="circle152" />
    <circle
       style="fill:#ffffff;stroke-width:0.264583"
       cx="82.655853"
       cy="85.759399"
       r="0.71358126"
       id="circle154" />
    <circle
       style="fill:#ffffff;stroke-width:0.264583"
       cx="96.038475"
       cy="107.41422"
       r="0.71358126"
       id="circle156" />
    <circle
       style="fill:#ffffff;stroke-width:0.264583"
       cx="98.080269"
       cy="110.93133"
       r="0.71358126"
       id="circle158" />
    <circle
       style="fill:#ffffff;stroke-width:0.264583"
       cx="86.620636"
       cy="111.72138"
       r="0.71358126"
       id="circle160" />
    <circle
       style="fill:#ffffff;stroke-width:0.264583"
       cx="86.290695"
       cy="109.66582"
       r="0.76570415"
       id="circle162" />
    <circle
       style="fill:#ffffff;stroke-width:0.264583"
       cx="86.260002"
       cy="79.112274"
       r="0.78766459"
       id="circle164" />
    <circle
       style="fill:#ffffff;stroke-width:0.264583"
       cx="103.21741"
       cy="93.754845"
       r="0.78792912"
       id="circle166" />
    <circle
       style="fill:#ffffff;stroke-width:0.264583"
       cx="109.57959"
       cy="93.030418"
       r="0.78766459"
       id="circle168" />
    <circle
       style="fill:#ffffff;stroke-width:0.264583"
       cx="111.7923"
       cy="103.85796"
       r="0.78766459"
       id="circle170" />
    <circle
       style="fill:#ffffff;stroke-width:0.264583"
       cx="112.26669"
       cy="94.492508"
       r="0.78792912"
       id="circle172" />
    <circle
       style="fill:#ffffff;stroke-width:0.264583"
       cx="98.494865"
       cy="97.870972"
       r="0.71358126"
       id="circle174" />
  </g>
</svg>
