<?xml version="1.0" encoding="UTF-8" standalone="no"?>
<!-- Created with Inkscape (http://www.inkscape.org/) -->

<svg
   width="68.711235mm"
   height="52.931217mm"
   viewBox="0 0 68.711235 52.931217"
   version="1.1"
   id="svg785"
   inkscape:version="1.2.2 (b0a8486541, 2022-12-01)"
   sodipodi:docname="United_Federation_of_planets_Logo.svg"
   xmlns:inkscape="http://www.inkscape.org/namespaces/inkscape"
   xmlns:sodipodi="http://sodipodi.sourceforge.net/DTD/sodipodi-0.dtd"
   xmlns="http://www.w3.org/2000/svg"
   xmlns:svg="http://www.w3.org/2000/svg">
  <sodipodi:namedview
     id="namedview787"
     pagecolor="#00000f"
     bordercolor="#666666"
     borderopacity="1.0"
     inkscape:showpageshadow="2"
     inkscape:pageopacity="0"
     inkscape:pagecheckerboard="0"
     inkscape:deskcolor="#d1d1d1"
     inkscape:document-units="mm"
     showgrid="false"
     inkscape:zoom="0.77593294"
     inkscape:cx="-105.03485"
     inkscape:cy="284.17404"
     inkscape:window-width="1920"
     inkscape:window-height="1056"
     inkscape:window-x="0"
     inkscape:window-y="0"
     inkscape:window-maximized="1"
     inkscape:current-layer="layer1" />
  <defs
     id="defs782" />
  <g
     inkscape:label="Ebene 1"
     inkscape:groupmode="layer"
     id="layer1"
     transform="translate(-59.415911,-73.784678)">
    <g
       id="g176"
       style="overflow:visible"
       transform="matrix(0.26458333,0,0,0.26458333,9.1286739,61.045467)">
	<g
   id="g6">
		<path
   style="fill:#ffffff"
   d="m 319.909,53.33 c -46.031,0 -83.348,37.316 -83.348,83.348 0,46.032 37.316,83.349 83.348,83.349 46.032,0 83.349,-37.316 83.349,-83.35 C 403.257,90.646 365.941,53.33 319.909,53.33 Z m 0,162.626 c -43.783,0 -79.277,-35.494 -79.277,-79.278 0,-43.783 35.495,-79.277 79.277,-79.277 43.784,0 79.278,35.495 79.278,79.277 0,43.783 -35.494,79.278 -79.278,79.278 z"
   id="path4" />

	</g>

	<g
   id="g10">
		<path
   style="fill:none;stroke:#ffffff;stroke-width:2.1496"
   d="m 319.91,224.132 c -48.299,0 -87.455,-39.154 -87.455,-87.455 0,-48.301 39.156,-87.454 87.455,-87.454 48.301,0 87.455,39.155 87.455,87.454 0,48.301 -39.155,87.455 -87.455,87.455 z"
   id="path8" />

	</g>

	<path
   style="fill:#ffffff"
   d="m 245.081,71.229 c 7.892,-6.473 16.893,-20.31 16.893,-20.31 0,0 -2.884,0.159 -6.729,2.273 -4.786,2.632 -10.741,7.333 -10.741,7.333 l 0.582,-5.822 c 0,0 -4.741,3.756 -7.768,8.729 -3.088,5.071 -4.46,11.36 -4.46,11.36 0,0 5.685,1.797 12.223,-3.563 z m -14.967,18.857 c 4.479,-4.053 7.694,-9.762 7.694,-9.762 0,0 -2.735,1.362 -5.283,1.773 -1.853,0.298 -3.742,-0.317 -3.742,-0.317 0,0 -0.983,-2.049 -0.785,-5.543 0.234,-4.162 1.658,-9.887 1.658,-9.887 0,0 -5.305,5.723 -7.599,12.605 -0.645,1.934 -1.126,3.942 -1.491,5.888 -1.405,6.548 -1.101,12.074 -1.101,12.074 0,0 5.961,-2.59 10.649,-6.831 z m -8.385,21.332 c 3.635,-4.006 5.888,-10.131 5.888,-10.131 0,0 -3.078,1.718 -6.243,2.449 -2.408,0.555 -5.11,0.172 -5.11,0.172 0,0 -0.847,-2.492 -1.185,-6.058 -0.601,-6.355 -0.272,-16.361 -0.272,-16.361 0,0 -5.477,9.954 -5.703,18.949 -0.209,8.3 4.249,16.569 4.249,16.569 0,0 4.882,-1.738 8.376,-5.589 z m -10.415,25.097 c 0,0 5.326,-4.017 8.2,-8.705 2.648,-4.321 2.863,-9.347 2.863,-9.347 0,0 -2.567,1.404 -5.3,2.467 -2.499,0.971 -5.181,1.609 -5.181,1.609 0,0 -2.973,-3.246 -4.799,-7.509 -2.773,-6.471 -4.81,-14.909 -4.81,-14.909 0,0 -2.943,11.298 -0.668,20.477 2.237,9.017 9.695,15.917 9.695,15.917 z m 1.456,22.126 c 0,0 3.673,-3.872 5.651,-8.749 2.094,-5.159 2.5,-11.34 2.5,-11.34 l -8.441,7.569 c 0,0 -4.536,-3.005 -8.433,-8.16 -5.335,-7.061 -10.491,-16.878 -10.491,-16.878 0,0 -0.65,15.365 4.191,24.829 4.765,9.314 15.023,12.729 15.023,12.729 z m 5.531,20.38 c 0,0 3.242,-3.754 4.261,-8.588 1.28,-6.084 0.398,-13.539 0.398,-13.539 0,0 -1.477,3.089 -3.359,5.913 -1.585,2.379 -3.627,4.568 -3.627,4.568 0,0 -5.294,-2.132 -10.464,-7.007 -7.273,-6.861 -15.448,-18.032 -15.448,-18.032 0,0 0.754,16.66 7.68,25.535 7.046,9.03 20.559,11.15 20.559,11.15 z m 11.355,19.506 c 0,0 1.972,-5.252 1.903,-11.063 -0.076,-6.391 -2.194,-13.394 -2.194,-13.394 l -6.697,12.81 c 0,0 -6.29,0.203 -12.571,-3.101 -7.694,-4.045 -15.668,-11.747 -15.668,-11.747 0,0 5.219,14.561 14.261,21.361 8.558,6.438 20.966,5.134 20.966,5.134 z m 13.683,16.887 c 0,0 0.928,-5.921 0.051,-11.314 -1.007,-6.195 -3.835,-11.977 -3.835,-11.977 0,0 -0.536,4.23 -1.805,8.035 -1.037,3.112 -2.854,5.939 -2.854,5.939 0,0 -3.589,0.529 -8.163,0.126 -6.562,-0.581 -14.837,-2.163 -14.837,-2.163 0,0 4.47,6.184 12.52,9.091 7.662,2.766 18.923,2.263 18.923,2.263 z m 6.405,-10.191 -1.164,14.848 c 0,0 -3.374,1.328 -7.871,1.513 -5.929,0.244 -13.384,-0.639 -13.384,-0.639 0,0 6.521,5.563 14.293,7.362 7.948,1.84 17.151,-0.083 17.151,-0.083 0,0 0.98,-5.251 -1.095,-10.271 -2.41,-5.835 -7.93,-12.73 -7.93,-12.73 z m 54.595,30.589 c -4.975,-2.746 -12.38,-4.387 -12.38,-4.387 0,0 -7.459,-1.217 -14.534,-3.28 -6.896,-2.013 -13.415,-4.871 -13.415,-4.871 0,0 1.464,3.644 0.677,6.162 -0.657,2.102 -3.588,3.153 -3.588,3.153 l 6.404,2.038 c 0,0 16.171,0.471 25.625,2.009 8.388,1.363 10.187,3.813 10.187,3.813 0,0 -1.023,1.077 -4.626,1.657 -5.144,0.83 -12.843,0.673 -12.843,0.673 l 5.53,5.241 c 0,0 6.063,0.739 11.299,-0.777 4.789,-1.388 8.791,-5.047 8.791,-5.047 0,0 -2.352,-3.747 -7.127,-6.384 z M 394.738,71.229 c 6.537,5.36 12.223,3.563 12.223,3.563 0,0 -1.372,-6.289 -4.46,-11.361 -3.026,-4.972 -7.77,-8.729 -7.77,-8.729 l 0.582,5.822 c 0,0 -5.955,-4.702 -10.741,-7.333 -3.844,-2.115 -6.728,-2.273 -6.728,-2.273 0,0 9.001,13.839 16.894,20.311 z m 14.967,18.857 c 4.688,4.24 10.647,6.833 10.647,6.833 0,0 0.306,-5.52 -1.097,-12.063 -0.364,-1.95 -0.85,-3.964 -1.493,-5.9 -2.296,-6.883 -7.601,-12.605 -7.601,-12.605 0,0 1.422,5.726 1.658,9.888 0.197,3.495 -0.785,5.543 -0.785,5.543 0,0 -1.891,0.615 -3.742,0.317 -2.547,-0.412 -5.282,-1.773 -5.282,-1.773 0,0 3.214,5.708 7.695,9.76 z m 2.495,11.201 c 0,0 2.253,6.125 5.889,10.131 3.495,3.853 8.378,5.59 8.378,5.59 0,0 4.457,-8.27 4.249,-16.569 -0.229,-8.995 -5.704,-18.949 -5.704,-18.949 0,0 0.328,10.006 -0.272,16.361 -0.338,3.565 -1.184,6.057 -1.184,6.057 0,0 -2.703,0.384 -5.112,-0.172 -3.165,-0.731 -6.244,-2.449 -6.244,-2.449 z m 10.541,19.643 c -2.73,-1.063 -5.301,-2.467 -5.301,-2.467 0,0 0.216,5.024 2.864,9.347 2.874,4.688 8.2,8.705 8.2,8.705 0,0 7.457,-6.9 9.691,-15.917 2.275,-9.179 -0.668,-20.477 -0.668,-20.477 0,0 -2.035,8.438 -4.81,14.908 -1.827,4.264 -4.798,7.51 -4.798,7.51 0,0 -2.679,-0.638 -5.178,-1.609 z m 4.599,25.193 -8.443,-7.568 c 0,0 0.406,6.181 2.5,11.339 1.979,4.878 5.652,8.75 5.652,8.75 0,0 10.258,-3.416 15.021,-12.729 4.843,-9.464 4.193,-24.829 4.193,-24.829 0,0 -5.156,9.818 -10.492,16.878 -3.896,5.153 -8.431,8.159 -8.431,8.159 z m 6.969,14.246 c -5.171,4.876 -10.464,7.008 -10.464,7.008 0,0 -2.042,-2.19 -3.628,-4.568 -1.883,-2.823 -3.359,-5.913 -3.359,-5.913 0,0 -0.883,7.454 0.399,13.539 1.017,4.834 4.259,8.588 4.259,8.588 0,0 13.514,-2.121 20.562,-11.15 6.928,-8.874 7.68,-25.534 7.68,-25.534 0,0 -8.174,11.169 -15.449,18.03 z m -17.16,26.512 -6.696,-12.81 c 0,0 -2.116,7.002 -2.192,13.394 -0.069,5.81 1.901,11.063 1.901,11.063 0,0 12.408,1.304 20.968,-5.133 9.042,-6.801 14.262,-21.361 14.262,-21.361 0,0 -7.977,7.702 -15.668,11.747 -6.286,3.303 -12.575,3.1 -12.575,3.1 z m -12.227,19.215 c 0,0 -1.815,-2.827 -2.854,-5.939 -1.269,-3.805 -1.805,-8.035 -1.805,-8.035 0,0 -2.829,5.781 -3.835,11.977 -0.877,5.395 0.05,11.314 0.05,11.314 0,0 11.262,0.503 18.923,-2.264 8.051,-2.907 12.521,-9.091 12.521,-9.091 0,0 -8.277,1.581 -14.839,2.162 -4.573,0.406 -8.161,-0.124 -8.161,-0.124 z m -5.813,15.488 c -4.498,-0.186 -7.871,-1.513 -7.871,-1.513 l -1.165,-14.848 c 0,0 -5.52,6.894 -7.933,12.729 -2.075,5.021 -1.094,10.271 -1.094,10.271 0,0 9.202,1.925 17.149,0.083 7.772,-1.8 14.293,-7.362 14.293,-7.362 0,0 -7.45,0.884 -13.379,0.64 z m -23.978,7.852 c -0.787,-2.521 0.677,-6.161 0.677,-6.161 0,0 -6.519,2.858 -13.415,4.87 -7.076,2.063 -14.534,3.28 -14.534,3.28 0,0 -7.405,1.64 -12.378,4.387 -4.775,2.637 -7.128,6.387 -7.128,6.387 0,0 4.003,3.658 8.79,5.046 5.236,1.519 11.299,0.777 11.299,0.777 l 5.531,-5.241 c 0,0 -7.699,0.158 -12.843,-0.671 -3.603,-0.582 -4.625,-1.658 -4.625,-1.658 0,0 1.798,-2.45 10.186,-3.813 9.454,-1.538 25.624,-2.009 25.624,-2.009 l 6.405,-2.038 c -0.001,-0.002 -2.932,-1.054 -3.589,-3.156 z"
   id="path12" />

	<path
   style="fill:#ffffff"
   d="m 316.675,139.02 c 0.003,0 0.004,0 0.004,0 h -0.007 c -0.354,-0.006 -16.407,-0.262 -19.06,-2.913 -2.651,-2.651 -2.907,-18.705 -2.912,-19.059 v -0.007 c 0,0 0,0.001 0,0.004 0,-0.003 0,-0.004 0,-0.004 v 0.007 c -0.006,0.354 -0.261,16.407 -2.913,19.059 -2.637,2.638 -18.537,2.905 -19.051,2.913 h -0.013 c 0,0 0.003,0 0.007,0 -0.004,0 -0.007,0 -0.007,0 h 0.013 c 0.515,0.007 16.414,0.275 19.051,2.912 2.652,2.651 2.907,18.705 2.913,19.059 v 0.007 c 0,0 0,-10e-4 0,-0.004 0,0.002 0,0.004 0,0.004 v -0.007 c 0.006,-0.354 0.261,-16.406 2.913,-19.059 2.651,-2.651 18.705,-2.907 19.059,-2.912 h 0.007 c -10e-4,0 -0.002,0 -0.004,0 z"
   id="path14" />

	<path
   style="fill:#ffffff"
   d="m 353.525,113.174 c 0.002,0 0.003,0 0.003,0 h -0.006 c -0.272,-0.004 -12.656,-0.2 -14.701,-2.246 -2.045,-2.046 -2.242,-14.429 -2.247,-14.7 v -0.004 c 0,0 0,0 0,0.002 0,-0.001 0,-0.002 0,-0.002 v 0.004 c -0.004,0.271 -0.201,12.654 -2.245,14.7 -2.034,2.034 -14.299,2.24 -14.696,2.246 h -0.011 c 0,0 0.003,0 0.007,0 -0.004,0 -0.007,0 -0.007,0 h 0.011 c 0.397,0.007 12.662,0.212 14.696,2.247 2.045,2.045 2.242,14.43 2.245,14.701 v 0.006 c 0,0 0,-10e-4 0,-0.003 0,0.002 0,0.003 0,0.003 v -0.006 c 0.005,-0.271 0.202,-12.656 2.248,-14.701 2.045,-2.045 14.428,-2.243 14.7,-2.247 h 0.006 c -0.001,0 -0.002,0 -0.003,0 z"
   id="path16" />

	<path
   style="fill:#ffffff"
   d="m 361.284,157.443 c 0.001,0 0.003,0 0.003,0 h -0.006 c -0.253,-0.004 -11.813,-0.189 -13.722,-2.097 -1.91,-1.909 -2.094,-13.469 -2.098,-13.724 v -0.005 c 0,0 0,0.001 0,0.003 0,-0.001 0,-0.003 0,-0.003 v 0.005 c -0.005,0.254 -0.188,11.813 -2.098,13.723 -1.898,1.898 -13.347,2.092 -13.717,2.098 h -0.01 c 0,0 0.002,0 0.005,0 -0.003,0 -0.005,0 -0.005,0 h 0.01 c 0.37,0.007 11.818,0.199 13.717,2.097 1.91,1.91 2.094,13.469 2.098,13.723 v 0.006 c 0,0 0,0 0,-0.002 0,0.001 0,0.002 0,0.002 v -0.006 c 0.005,-0.253 0.188,-11.813 2.098,-13.723 1.909,-1.909 13.469,-2.093 13.722,-2.097 h 0.006 c 0,0 -0.002,0 -0.003,0 z"
   id="path18" />

	<circle
   style="fill:#ffffff"
   cx="347.91901"
   cy="136.19701"
   r="3.6760001"
   id="circle20" />

	<circle
   style="fill:#ffffff"
   cx="326.039"
   cy="150.31"
   r="3.6760001"
   id="circle22" />

	<circle
   style="fill:#ffffff"
   cx="301.84399"
   cy="176.746"
   r="3.6760001"
   id="circle24" />

	<circle
   style="fill:#ffffff"
   cx="319.91501"
   cy="127.409"
   r="3.415"
   id="circle26" />

	<circle
   style="fill:#ffffff"
   cx="320.11899"
   cy="169.431"
   r="3.6270001"
   id="circle28" />

	<circle
   style="fill:#ffffff"
   cx="271.82401"
   cy="171.966"
   r="3.6760001"
   id="circle30" />

	<circle
   style="fill:#ffffff"
   cx="388.09201"
   cy="107.809"
   r="3.6760001"
   id="circle32" />

	<circle
   style="fill:#ffffff"
   cx="368.008"
   cy="100.078"
   r="3.7090001"
   id="circle34" />

	<circle
   style="fill:#ffffff"
   cx="319.46799"
   cy="137.61501"
   r="2.697"
   id="circle36" />

	<circle
   style="fill:#ffffff"
   cx="282.62701"
   cy="170.373"
   r="2.697"
   id="circle38" />

	<circle
   style="fill:#ffffff"
   cx="251.46201"
   cy="157.33099"
   r="2.697"
   id="circle40" />

	<circle
   style="fill:#ffffff"
   cx="331.26501"
   cy="68.166"
   r="2.697"
   id="circle42" />

	<circle
   style="fill:#ffffff"
   cx="345.63901"
   cy="65.969002"
   r="2.697"
   id="circle44" />

	<circle
   style="fill:#ffffff"
   cx="256.21399"
   cy="127.479"
   r="2.9790001"
   id="circle46" />

	<circle
   style="fill:#ffffff"
   cx="250.233"
   cy="148.636"
   r="2.9779999"
   id="circle48" />

	<circle
   style="fill:#ffffff"
   cx="304.11801"
   cy="94.750999"
   r="2.9790001"
   id="circle50" />

	<circle
   style="fill:#ffffff"
   cx="291.237"
   cy="95.628998"
   r="2.0179999"
   id="circle52" />

	<circle
   style="fill:#ffffff"
   cx="315.11801"
   cy="83.972"
   r="2.0179999"
   id="circle54" />

	<circle
   style="fill:#ffffff"
   cx="320.29599"
   cy="117.625"
   r="2.0179999"
   id="circle56" />

	<circle
   style="fill:#ffffff"
   cx="300.39999"
   cy="128.804"
   r="2.0179999"
   id="circle58" />

	<circle
   style="fill:#ffffff"
   cx="309.013"
   cy="145.731"
   r="2.0190001"
   id="circle60" />

	<circle
   style="fill:#ffffff"
   cx="312.448"
   cy="162.657"
   r="2.0179999"
   id="circle62" />

	<circle
   style="fill:#ffffff"
   cx="312.74701"
   cy="151.705"
   r="2.0190001"
   id="circle64" />

	<circle
   style="fill:#ffffff"
   cx="320.11401"
   cy="154.09399"
   r="2.0179999"
   id="circle66" />

	<circle
   style="fill:#ffffff"
   cx="349.04001"
   cy="146.12801"
   r="2.0179999"
   id="circle68" />

	<path
   style="fill:#ffffff"
   d="m 339.284,150.883 c 0,1.114 -0.903,2.019 -2.019,2.019 -1.116,0 -2.019,-0.903 -2.019,-2.019 0,-1.114 0.902,-2.019 2.019,-2.019 1.115,0 2.019,0.904 2.019,2.019 z"
   id="path70" />

	<circle
   style="fill:#ffffff"
   cx="362.332"
   cy="124.622"
   r="2.0179999"
   id="circle72" />

	<circle
   style="fill:#ffffff"
   cx="320.91101"
   cy="144.63499"
   r="2.0190001"
   id="circle74" />

	<circle
   style="fill:#ffffff"
   cx="330.66901"
   cy="161.064"
   r="2.0179999"
   id="circle76" />

	<circle
   style="fill:#ffffff"
   cx="367.70901"
   cy="125.816"
   r="2.0190001"
   id="circle78" />

	<circle
   style="fill:#ffffff"
   cx="383.63901"
   cy="115.212"
   r="2.0179999"
   id="circle80" />

	<path
   style="fill:#ffffff"
   d="m 385.658,142.558 c 0,1.271 -1.031,2.303 -2.303,2.303 -1.273,0 -2.305,-1.031 -2.305,-2.303 0,-1.273 1.031,-2.306 2.305,-2.306 1.27,0.002 2.303,1.034 2.303,2.306 z"
   id="path82" />

	<circle
   style="fill:#ffffff"
   cx="359.14499"
   cy="108.89"
   r="2.0179999"
   id="circle84" />

	<circle
   style="fill:#ffffff"
   cx="371.89001"
   cy="105.206"
   r="2.0179999"
   id="circle86" />

	<circle
   style="fill:#ffffff"
   cx="373.534"
   cy="111.479"
   r="2.0179999"
   id="circle88" />

	<circle
   style="fill:#ffffff"
   cx="362.53101"
   cy="90.569"
   r="2.0190001"
   id="circle90" />

	<circle
   style="fill:#ffffff"
   cx="376.07199"
   cy="95.348999"
   r="2.0179999"
   id="circle92" />

	<circle
   style="fill:#ffffff"
   cx="368.008"
   cy="80.014999"
   r="2.0179999"
   id="circle94" />

	<circle
   style="fill:#ffffff"
   cx="299.604"
   cy="155.09"
   r="2.0190001"
   id="circle96" />

	<circle
   style="fill:#ffffff"
   cx="297.91101"
   cy="169.826"
   r="2.0190001"
   id="circle98" />

	<circle
   style="fill:#ffffff"
   cx="288.452"
   cy="172.713"
   r="2.0190001"
   id="circle100" />

	<circle
   style="fill:#ffffff"
   cx="284.07101"
   cy="160.765"
   r="2.0179999"
   id="circle102" />

	<circle
   style="fill:#ffffff"
   cx="291.33899"
   cy="160.76601"
   r="2.0179999"
   id="circle104" />

	<circle
   style="fill:#ffffff"
   cx="273.716"
   cy="153.696"
   r="2.0179999"
   id="circle106" />

	<circle
   style="fill:#ffffff"
   cx="280.33701"
   cy="142.694"
   r="2.0179999"
   id="circle108" />

	<circle
   style="fill:#ffffff"
   cx="267.34299"
   cy="136.271"
   r="2.0179999"
   id="circle110" />

	<circle
   style="fill:#ffffff"
   cx="250.019"
   cy="114.615"
   r="2.0179999"
   id="circle112" />

	<circle
   style="fill:#ffffff"
   cx="255.125"
   cy="174.29201"
   r="2.0179999"
   id="circle114" />

	<circle
   style="fill:#ffffff"
   cx="268.14001"
   cy="186.006"
   r="2.0179999"
   id="circle116" />

	<circle
   style="fill:#ffffff"
   cx="279.89001"
   cy="176.44701"
   r="2.0179999"
   id="circle118" />

	<circle
   style="fill:#ffffff"
   cx="331.26501"
   cy="210.599"
   r="2.0179999"
   id="circle120" />

	<circle
   style="fill:#ffffff"
   cx="274.513"
   cy="187.151"
   r="2.0179999"
   id="circle122" />

	<circle
   style="fill:#ffffff"
   cx="276.703"
   cy="198.25301"
   r="2.0179999"
   id="circle124" />

	<circle
   style="fill:#ffffff"
   cx="288.05399"
   cy="189.53999"
   r="2.0179999"
   id="circle126" />

	<circle
   style="fill:#ffffff"
   cx="327.88101"
   cy="193.424"
   r="2.0179999"
   id="circle128" />

	<circle
   style="fill:#ffffff"
   cx="330.96799"
   cy="180.28101"
   r="2.0179999"
   id="circle130" />

	<circle
   style="fill:#ffffff"
   cx="375.62399"
   cy="182.073"
   r="2.0179999"
   id="circle132" />

	<circle
   style="fill:#ffffff"
   cx="365.46899"
   cy="150.60899"
   r="2.0179999"
   id="circle134" />

	<circle
   style="fill:#ffffff"
   cx="357.25699"
   cy="140.00301"
   r="2.2060001"
   id="circle136" />

	<circle
   style="fill:#ffffff"
   cx="353.08499"
   cy="132.55"
   r="2.155"
   id="circle138" />

	<circle
   style="fill:#ffffff"
   cx="332.72101"
   cy="134.739"
   r="2.279"
   id="circle140" />

	<circle
   style="fill:#ffffff"
   cx="350.34399"
   cy="108.453"
   r="2.279"
   id="circle142" />

	<circle
   style="fill:#ffffff"
   cx="345.604"
   cy="119.544"
   r="2.3529999"
   id="circle144" />

	<circle
   style="fill:#ffffff"
   cx="323.5"
   cy="190.03799"
   r="2.0179999"
   id="circle146" />

	<circle
   style="fill:#ffffff"
   cx="335.448"
   cy="177.293"
   r="2.0179999"
   id="circle148" />

	<circle
   style="fill:#ffffff"
   cx="367.11099"
   cy="113.57"
   r="2.0179999"
   id="circle150" />

	<circle
   style="fill:#ffffff"
   cx="352.80099"
   cy="117.878"
   r="2.1900001"
   id="circle152" />

	<circle
   style="fill:#ffffff"
   cx="277.89801"
   cy="93.406998"
   r="2.697"
   id="circle154" />

	<circle
   style="fill:#ffffff"
   cx="328.478"
   cy="175.252"
   r="2.697"
   id="circle156" />

	<circle
   style="fill:#ffffff"
   cx="336.19501"
   cy="188.545"
   r="2.697"
   id="circle158" />

	<circle
   style="fill:#ffffff"
   cx="292.883"
   cy="191.53101"
   r="2.697"
   id="circle160" />

	<circle
   style="fill:#ffffff"
   cx="291.63599"
   cy="183.76199"
   r="2.8940001"
   id="circle162" />

	<circle
   style="fill:#ffffff"
   cx="291.51999"
   cy="68.283997"
   r="2.977"
   id="circle164" />

	<circle
   style="fill:#ffffff"
   cx="355.61099"
   cy="123.626"
   r="2.9779999"
   id="circle166" />

	<circle
   style="fill:#ffffff"
   cx="379.65701"
   cy="120.888"
   r="2.977"
   id="circle168" />

	<circle
   style="fill:#ffffff"
   cx="388.01999"
   cy="161.811"
   r="2.977"
   id="circle170" />

	<circle
   style="fill:#ffffff"
   cx="389.81299"
   cy="126.414"
   r="2.9779999"
   id="circle172" />

	<circle
   style="fill:#ffffff"
   cx="337.76199"
   cy="139.183"
   r="2.697"
   id="circle174" />

</g>
  </g>
</svg>
